# xmcd CD database file
#
# Track frame offsets:
#	150
#	38495
#	77459
#	146896
#	240318
#
# Disc length: 4380 seconds
#
# Revision: 0
# Processed by: cddbd v1.5.2PL0 Copyright (c) Steve Scherf et al.
# Submitted via: CDex 1.70beta2
#
DISCID=31111a05
DTITLE=Judy Hall - Crystal Workshop
DYEAR=1900
DGENRE=New Age
TTITLE0=Relaxation, focusing and opening the mind's eye
TTITLE1=Attuning to My Crystals
TTITLE2=Music Only
TTITLE3=The Quartz Crystal Journey
TTITLE4=The Rainbow Obsidian Journey
EXTD=
EXTT0=
EXTT1=
EXTT2=
EXTT3=
EXTT4=
PLAYORDER=
